<?xml version="1.0" encoding="UTF-8"?>
<svg xmlns="http://www.w3.org/2000/svg" viewBox="0 0 342.71 217.57">
  <defs>
    <style>
      .cls-1 {
        fill: #c0a0cb;
      }

      .cls-2 {
        fill: #b390c2;
      }

      .cls-3 {
        fill: #fff;
      }

      .cls-4 {
        fill: #8e65a8;
      }

      .cls-5 {
        fill: #9871af;
      }

      .cls-6 {
        fill: #926bac;
      }

      .cls-7 {
        fill: #9b73b1;
      }

      .cls-8 {
        fill: #faf4fa;
      }

      .cls-9 {
        fill: #a984ba;
      }

      .cls-10 {
        fill: #e7d3e8;
      }

      .cls-11 {
        fill: #f9f2f8;
      }

      .cls-12 {
        fill: #f8eef7;
      }

      .cls-13 {
        fill: #af8bbf;
      }

      .cls-14 {
        fill: #d6bbdb;
      }

      .cls-15 {
        fill: #bc99c7;
      }

      .cls-16 {
        fill: #fbf6fb;
      }

      .cls-17 {
        fill: #b38fc2;
      }

      .cls-18 {
        fill: #a37eb7;
      }

      .cls-19 {
        fill: #ccadd3;
      }

      .cls-20 {
        fill: #f8eff7;
      }

      .cls-21 {
        fill: #9770af;
      }

      .cls-22 {
        fill: #d8bddc;
      }

      .cls-23 {
        fill: #e6d1e7;
      }

      .cls-24 {
        fill: #e9d6ea;
      }

      .cls-25 {
        fill: #fffeff;
      }

      .cls-26 {
        fill: #6a4595;
      }

      .cls-27 {
        fill: #ab86bc;
      }

      .cls-28 {
        fill: #b996c6;
      }

      .cls-29 {
        fill: #9e79b4;
      }

      .cls-30 {
        fill: #dfc9e3;
      }

      .cls-31 {
        fill: #fbf4fa;
      }

      .cls-32 {
        fill: #8257a0;
      }

      .cls-33 {
        fill: #c2a0cb;
      }

      .cls-34 {
        fill: #c29fcb;
      }

      .cls-35 {
        fill: #c8abd2;
      }

      .cls-36 {
        fill: #d9c0de;
      }

      .cls-37 {
        fill: #c3a2cd;
      }

      .cls-38 {
        fill: #f0e1ef;
      }

      .cls-39 {
        fill: #a27db7;
      }

      .cls-40 {
        fill: #9168aa;
      }

      .cls-41 {
        fill: #c19fcb;
      }

      .cls-42 {
        fill: #bf9cc9;
      }

      .cls-43 {
        fill: #7c529d;
      }

      .cls-44 {
        fill: #d9bedd;
      }

      .cls-45 {
        fill: #caaed4;
      }

      .cls-46 {
        fill: #895fa5;
      }

      .cls-47 {
        fill: #c9a9d1;
      }

      .cls-48 {
        fill: #dac1de;
      }

      .cls-49 {
        fill: #c09dca;
      }

      .cls-50 {
        fill: #6f4897;
      }

      .cls-51 {
        fill: #a984bb;
      }

      .cls-52 {
        fill: #855ba2;
      }

      .cls-53 {
        fill: #8a63a7;
      }

      .cls-54 {
        fill: #d2b5d8;
      }

      .cls-55 {
        fill: #875ea4;
      }

      .cls-56 {
        fill: #c6a6cf;
      }

      .cls-57 {
        fill: #caaad1;
      }

      .cls-58 {
        fill: #885fa4;
      }

      .cls-59 {
        fill: #ebd8eb;
      }

      .cls-60 {
        fill: #9c75b2;
      }

      .cls-61 {
        fill: #c8a8d0;
      }

      .cls-62 {
        fill: #dec6e1;
      }
    </style>
  </defs>
  <g id="Capa_1" data-name="Capa 1">
    <path class="cls-26" d="M2.86,138.85c-3.05,2.64-3.74,7.09-1.67,10.55,10.86,18.07,51.53,69,164.61,68.16,120.02-.89,166.01-56.98,175.74-71.18,1.31-1.92,1.54-4.38,.57-6.49h0c-.78-1.71-2.27-2.99-4.08-3.52l-1.26-.36c-1.51-.44-3.12-.32-4.56,.33-13.35,6.05-85.78,37.15-163.56,37.15-73.36,0-139.03-27.67-156.92-35.89-2.95-1.36-6.42-.87-8.87,1.26h0Z"/>
    <path class="cls-26" d="M36.57,117.45h11.99c3.7,0,6.7-2.98,6.74-6.67l.2-19.7c.04-4.08,3.32-7.39,7.4-7.46l7.05-.13c3.15-.06,6,1.84,7.15,4.77l9.84,24.93c1.02,2.57,3.5,4.27,6.27,4.27h19.52c8.47,0,15.33-6.62,15.33-14.79v-5.47c0-1.79-.39-3.57-1.14-5.2l-8.83-19.17c-1.38-2.99-.87-6.5,1.3-8.97l5.73-6.54c1.89-2.16,2.94-4.94,2.94-7.81l.84-24.2C128.9,3.57,108.17,0,99.7,0H35.64c-8.53,0-15.42,6.71-15.33,14.94l.93,87.87c.09,8.11,6.92,14.64,15.33,14.64Z"/>
    <path class="cls-26" d="M155.84,154.43h25.94c2.88,0,5.22-6.62,5.22-14.79V51.78c0-8.17-2.34-14.79-5.22-14.79h-26.26c-2.9,0-5.25,6.71-5.22,14.94l.32,87.87c.03,8.11,2.36,14.64,5.22,14.64Z"/>
    <path class="cls-26" d="M215.22,119.13h10.94c3.74,0,7.09-2.29,8.45-5.77l6.43-16.47c1.36-3.48,4.71-5.77,8.45-5.77h22.06c3.81,0,7.22,2.38,8.52,5.96l5.86,16.08c1.31,3.58,4.71,5.96,8.52,5.96h14.62c10.44,0,9.29-8.72,.68-29.01L279.9,5.77c-1-2.35-3.85-4.08-6.45-4.08h-23.75c-2.63,0-5.49,1.75-6.47,4.13l-31.2,86.22c-8.34,20.24-7.17,27.1,3.19,27.1Z"/>
  </g>
  <g id="Capa_2" data-name="Capa 2">
    <g>
      <path class="cls-3" d="M311.12,110.14c-6.69,0-13.38-.03-20.07,.03-1.07,0-1.22-.64-1.54-1.33-2.81-5.92-4.64-12.21-6.84-18.36-1.44-4.03-1.4-4.05-5.71-4.05-12.46,0-24.92,.04-37.37-.05-1.68-.01-2.38,.53-2.86,2.07-1.38,4.4-2.98,8.72-4.37,13.12-.81,2.58-2.59,4.74-3.06,7.46-.16,.91-.81,1.13-1.71,1.12-5.06-.04-10.13-.02-15.55-.02,1.76-4.41,2.77-8.81,4.87-12.91,1.69-3.32,2.57-7.05,3.81-10.6,3.06-8.74,6.34-17.41,9.65-26.06,2.45-6.42,4.32-13.08,7.14-19.33,2.88-6.38,4.54-13.18,7.31-19.56,1.38-3.19,2.64-6.4,3.73-9.67,.38-1.15,1.05-1.35,2.11-1.35,7.04,.03,14.09,.07,21.13-.02,2.43-.03,2.82,1.82,3.4,3.34,1.71,4.56,2.99,9.29,4.9,13.76,2.83,6.65,4.8,13.63,7.68,20.23,2.42,5.54,3.9,11.4,6.32,16.9,3.05,6.94,5.02,14.28,8.02,21.2,2.67,6.18,4.6,12.6,6.97,18.87,.64,1.7,2.12,3.06,2.06,5.21Z"/>
      <path class="cls-3" d="M243.35,194.07c-1.84,.06-3.68,.12-5.52,.17-1.22,.45-2.03,1.37-2.73,2.4-1.85,.05-3.7,.09-5.55,.14-.56,.45-1.22,.68-1.9,.61-1.57-.15-2.54,.68-3.34,1.87-1.87,.05-3.75,.09-5.62,.14-1.76,1.11-3.7,.58-5.58,.66-2.45,.05-4.9,.07-7.34,0-2.01-.06-3.57,.22-3.45,2.77,.03,.59-.26,1.15-.74,1.56l-21.57,.17c-.94,.76-2.07,.73-3.18,.73-7.35,.02-14.69,.02-22.04,0-1.11,0-2.24,.02-3.18-.73-4.63-.01-9.27-.03-13.9-.04-.06-.06-.15-.11-.18-.18q-1.53-3.73-5.85-3.75c-.93,0-1.87,.04-2.8-.13-.47-.1-.88-.28-1.2-.64-.19-.29-.4-.61-.38-.94,.14-2.63-.76-4.17-3.72-4.2-1.39-.01-2.21-1.19-2.48-2.58-.21-1.1-.14-2.22-.14-3.33,0-2.15,1.06-3.12,3.18-3.09,1.54,.02,3.08-.06,4.62,.02,1.42-.04,2.85-.09,4.27,0,2.05,.15,3.81-.2,4.87-2.19,1.97-.8,4.03-.43,6.06-.46,3.4-.06,6.8-.03,10.2,0,1.1,0,2.23-.02,3.16,.73,9.09,0,18.19,0,27.28,0,.86-.69,1.89-.72,2.91-.72,4.67,0,9.35-.09,14.02,.05,3.7-.06,7.4-.09,11.1,.01,.33,0,.67,0,1.01,0q3.57,0,4.53-3.47c.09-.33,.3-.6,.55-.83,3.58-.05,7.15-.1,10.73-.15,.63-.51,1.39-.71,2.15-.62,1.63,.19,2.74-.58,3.66-1.79,2.7-.07,5.41-.13,8.11-.2,2.17-.65,4.23-1.59,6.33-2.41,4.4-.46,8.56-1.94,12.83-2.96,6.28-1.5,12.42-3.41,18.59-5.26,8.99-2.69,17.8-5.85,26.56-9.2,10.11-3.86,19.99-8.23,29.71-13.05,.15,.9-.57,1.13-1.02,1.49-10.33,8.3-21.41,15.53-32.82,22.24-8.9,5.23-18.09,9.95-27.52,14.16-5.78,2.58-11.6,5.07-17.59,7.19-3.04,1.07-6.29,1.84-9.12,3.56-.88,.53-1.82,.2-2.71-.1-1.32,.47-2.53,1.11-3.25,2.39Z"/>
      <path class="cls-30" d="M50.48,100.33c.03,2.57,.02,5.14,.11,7.71,.04,1.21-.38,1.65-1.61,1.64-5.49-.06-10.98-.08-16.47-.05-1.3,0-1.58-.54-1.56-1.69,.04-3.43,0-6.86-.01-10.29,0-25.89,0-51.78,0-77.67,0-1.03,.04-2.06,.07-3.08,3.12-1.48,6.32-.87,9.53-.39,.3,.17,.52,.42,.66,.73,.54,1.49,.37,3.05,.37,4.59,.01,24.1,0,48.2,0,72.3,0,.86,.05,1.72,0,2.57-.13,2.1,.85,2.86,2.92,2.87,2.01,.02,4.14-.58,5.99,.77Z"/>
      <path class="cls-12" d="M50.48,100.33c-2.49,0-4.99-.11-7.47,.07-2.18,.16-2.29-.97-2.29-2.65,.04-14.5,.01-29,.01-43.5,0-12.44,.01-24.88,.02-37.32,3.25-1.5,6.55-1.13,9.86-.23,1.41,3.07,.5,6.31,.69,9.48,.1,9.26,.11,18.51,0,27.77,.13,5.24,.04,10.48,.05,15.72,0,1.04-.08,2.07-.76,2.93-.04,9.25-.08,18.49-.12,27.74Z"/>
      <path class="cls-25" d="M90.81,176.03c2.74,.03,5.48,.05,8.21,.08,1.01,1.12,.66,2.62,1.1,3.91,.34,3.99,.22,7.93-1.07,11.78-2.79,.87-5.56,1.02-8.32-.13-2.72-.05-5.45-.1-8.17-.15-1.15-1.3-.8-2.9-.77-4.39,.04-1.88-.77-2.59-2.59-2.52-1.69,.07-3.39,.05-5.09,0-2.88-.18-5.85,.72-8.63-.69l.06-.12c-1.15-1.3-.8-2.9-.77-4.39,.04-1.87-.74-2.61-2.58-2.53-1.69,.07-3.39,.05-5.09,0-2.71-.17-5.51,.69-8.12-.7l.06-.1c-1.37-2.38-.82-4.88-.44-7.36,.14-.3,.36-.53,.65-.69,2.67-.76,5.4-.28,8.11-.37,2.73,.17,5.53-.67,8.16,.67,2.9,.05,5.8,.11,8.7,.16,1.19,1.29,.82,2.89,.79,4.37-.03,1.88,.76,2.6,2.58,2.52,1.69-.07,3.39-.05,5.09,0,2.72,.15,5.51-.65,8.12,.66Z"/>
      <path class="cls-14" d="M50.6,72.6l.03-18.72c.85-.75,1.91-.71,2.93-.71,8.15-.03,16.29-.03,24.44,0,1.03,0,2.07,0,2.98,.6,1.4,2.08,.61,4.43,.8,6.65,.08,.92,.03,1.86-.04,2.78,.1,2.23,.06,4.46,.02,6.7-.02,.94-.01,1.91-.79,2.63-10.12,.02-20.25,.04-30.37,.07Z"/>
      <path class="cls-11" d="M99,191.63c-.18-3.96,.91-7.87,.52-11.84,.12-.12,.23-.33,.36-.35,4.89-.74,9.78-1.11,14.65,.22,4.79,.05,9.57,.11,14.36,.16,1.23,2.19,1.17,4.39,.05,6.6-.85,0-1.7,.01-2.56,.01-4.82,0-5.62,1-4.65,5.78,.26,1.27,1.03,1.82,2.31,1.95,3.85,.38,3.85,.4,3.85,4.3,0,.43,0,.85,0,1.28-2.04,1.39-4.13,1.13-6.24,.18-4.79-.06-9.58-.12-14.37-.18-.75-.73-.72-1.7-.77-2.64-.18-3.19-.18-3.17-3.46-3.23-1.36-.03-2.76,.22-4.02-.56-.47-.55-.46-1.11-.04-1.68Z"/>
      <path class="cls-47" d="M50.54,16.88c-3.26,.01-6.52,.03-9.78,.05,0,0-.03-.16-.03-.16-1.21-3.04-1.26-6.08,.05-9.11,16.65,0,33.3,0,49.95,0,1.33,3.1,1.27,6.21,.03,9.33-1.13,.81-2.44,.69-3.71,.69-10.95,.02-21.9,.02-32.84,0-1.27,0-2.59,.12-3.67-.8Z"/>
      <path class="cls-8" d="M80.97,72.53c.01-3.09,.02-6.17,.03-9.26,1.24-1.09,2.76-.75,4.18-.77,4.8-.05,4.8-.03,4.84-4.71,.01-1.19-.11-2.4,.37-3.55,.15-.29,.38-.51,.67-.66,3.24-.47,6.48-.98,9.64,.4,1.01,3.12,1.13,6.24-.09,9.34,.02,3.06,.03,6.12,.05,9.18,1.35,3.02,.49,6.19,.67,9.3-.15,3.13,.65,6.33-.63,9.39-3.3,1.03-6.6,1.26-9.87-.14l-.12,.07c-1.41-2.97-.52-6.11-.69-9.17-.07-2.12-.04-4.25-.02-6.37,.02-1.63-.73-2.21-2.31-2.29-2.25-.12-4.61,.62-6.73-.74h.02Z"/>
      <path class="cls-49" d="M161.85,144.33q-4.55-.3-4.55-4.99c.02-29.99,.03-59.98,.05-89.96,1.45-1.1,2.99-.91,4.55-.27,.26,.22,.44,.49,.57,.81,.4,1.25,.3,2.55,.3,3.83,0,28.65,0,57.29,0,85.94,0,1.28,.11,2.58-.29,3.83-.13,.33-.34,.59-.62,.8Z"/>
      <path class="cls-20" d="M179.39,49.38c.03,10.72,.07,21.45,.07,32.17,0,20.85-.04,41.7-.06,62.55-1.43,1.1-2.86,1.06-4.3,.01-.72-1.17-.59-2.48-.59-3.75-.01-29.05-.01-58.11,0-87.16,0-1.28-.12-2.58,.56-3.77,1.42-1.13,2.86-1.14,4.31-.05Z"/>
      <path class="cls-38" d="M90.83,91.05c3.25,0,6.49,.02,9.74,.03,3.43-1.26,6.85-1.31,10.27,.03l.11-.06c1.42,3.01,.52,6.19,.7,9.28,.1,2.21,.05,4.43,.03,6.65-.01,.95-.11,1.88-.83,2.61-3.41,0-6.81,0-10.22-.01-1.36-1.72-.79-3.76-.78-5.65,.01-2.08-.75-2.83-2.84-2.84-2.06-.01-4.26,.66-6.15-.79,0-3.08-.01-6.16-.02-9.24Z"/>
      <path class="cls-52" d="M151.6,204.55c9.47,0,18.93,0,28.4,0-.11,5.49,.74,5.06-5.15,5.06-6.61,0-13.21,0-19.82,0q-3.4,0-3.41-3.52c0-.51-.01-1.03-.02-1.54Z"/>
      <path class="cls-16" d="M40.79,160.57c2.72,.05,5.45,.1,8.17,.15,1.31,2.55,1.26,5.11,.03,7.68l.03-.03c-2.77,1.27-5.55,1.18-8.34,.06-2.71-.03-5.41-.06-8.12-.09-1.42-2.38-.83-4.88-.46-7.38,.15-.3,.37-.53,.66-.69,2.7-.51,5.39-.86,8.03,.3Z"/>
      <path class="cls-18" d="M114.53,179.66c-5,.04-10,.09-15.01,.13-.99-1.12-.26-2.47-.51-3.69-.45-2.41,.39-3.33,2.96-3.15,3.39,.24,6.82,.17,10.22,.05,1.79-.06,2.47,.51,2.32,2.31-.12,1.44,0,2.89,.01,4.34Z"/>
      <path class="cls-40" d="M157.32,183.76c-6.54,.01-13.08,.03-19.62,.04-1.08-1.39-.93-2.78,0-4.17,.24-1.5,1.44-.95,2.25-.95,4.81-.03,9.63,.16,14.43-.03,2.46-.1,3.25,.76,2.93,3.05-.09,.67,0,1.37,.01,2.06Z"/>
      <path class="cls-61" d="M110.83,91.11c-3.42-.01-6.84-.02-10.26-.03,.02-3.11,.05-6.22,.07-9.33,3.41-1.14,6.82-1.28,10.21,.11,0,3.09,0,6.17-.01,9.26Z"/>
      <path class="cls-23" d="M100.61,63.32c-.02-3.13-.04-6.26-.05-9.38,.11-.1,.23-.2,.34-.3,3.12-.7,6.25-.47,9.39-.17,.29,.11,.53,.28,.72,.53-.03,2.56-.12,5.11-.07,7.67,.02,1.23-.42,1.63-1.63,1.61-2.9-.05-5.8,.02-8.7,.04Z"/>
      <path class="cls-59" d="M100.57,16.75c3.42,.05,6.84,.09,10.25,.14,1.47,2.9,.85,5.91,.48,8.91-.14,.3-.36,.54-.65,.7-3.35,.59-6.7,.84-10.02-.18-1.52-2.84-.73-5.84-.6-8.79,.11-.31,.28-.57,.53-.78Z"/>
      <path class="cls-53" d="M110.84,81.86c-3.4-.04-6.8-.07-10.21-.11,0-3.08,.02-6.17,.03-9.25,2.63,0,5.26,.1,7.89-.01,1.71-.07,2.49,.39,2.37,2.25-.15,2.36-.06,4.74-.07,7.12Z"/>
      <path class="cls-13" d="M40.78,7.66c-.02,3.04-.03,6.07-.05,9.11-3.24,.05-6.48,.09-9.72,.14-.02-2.56,0-5.12-.08-7.68-.03-1.21,.43-1.68,1.65-1.65,2.73,.07,5.47,.06,8.2,.08Z"/>
      <path class="cls-9" d="M90.82,16.79c-.03-3.04-.06-6.08-.08-9.13,2.66-.03,5.33,0,7.99-.1,1.51-.06,1.93,.57,1.88,1.97-.08,2.4-.03,4.81-.03,7.21,0,0,.01,.24,.01,.24-3.13,1.09-6.28,.84-9.44,.15-.11-.12-.22-.24-.33-.36Z"/>
      <path class="cls-32" d="M110.99,26.12c-.05-3.08-.11-6.16-.16-9.23,2.65,0,5.3,.03,7.94-.05,1.44-.05,1.99,.48,1.94,1.93-.09,2.47-.04,4.95-.05,7.42-3.23,1.14-6.45,1.24-9.66-.07Z"/>
      <path class="cls-33" d="M110.99,26.12c3.22,.02,6.44,.05,9.66,.07-.01,3.08-.03,6.16-.04,9.24-3.26,1.3-6.54,1.11-9.83,.11-1.08-3.13-1.07-6.27-.03-9.4,0,0,.24-.02,.24-.02Z"/>
      <path class="cls-44" d="M110.94,35.39c3.22,.02,6.44,.03,9.66,.05,0,3.08,0,6.15,0,9.23-3.26,1.39-6.55,1.16-9.85,.14-.97-3.16-1.28-6.31,.19-9.42Z"/>
      <path class="cls-42" d="M110.94,44.72c3.22-.02,6.44-.04,9.66-.06,.03,2.46-.03,4.92,.11,7.37,.09,1.61-.56,2.05-2.07,1.99-2.54-.1-5.09-.03-7.64-.03-.09,0-.18-.02-.26-.05-.95-3.1-1.23-6.18,.2-9.23Z"/>
      <path class="cls-60" d="M90.71,81.85c0,3.09,0,6.18,0,9.27-2.46,0-4.93-.1-7.39,0-1.69,.07-2.51-.35-2.38-2.23,.16-2.37,.07-4.75,.09-7.13,3.24-1.15,6.46-1.27,9.68,.09Z"/>
      <path class="cls-39" d="M110.83,109.59c.05-3.09,.09-6.18,.14-9.27,3.24-1.19,6.47-1.26,9.69,.07,0,2.38-.08,4.77,.05,7.14,.09,1.73-.59,2.21-2.22,2.13-2.55-.12-5.1-.06-7.66-.08Z"/>
      <path class="cls-43" d="M120.66,100.38c-3.23-.02-6.46-.05-9.69-.07-.01-3.09-.02-6.18-.03-9.26,2.54,0,5.09,.1,7.63,0,1.71-.07,2.22,.6,2.14,2.22-.11,2.37-.04,4.74-.05,7.12Z"/>
      <path class="cls-19" d="M90.71,81.85c-3.23-.03-6.45-.06-9.68-.09-.03-3.07-.05-6.14-.08-9.21,2.65,0,5.29,.05,7.94-.04,1.46-.05,1.95,.51,1.9,1.94-.1,2.47-.06,4.94-.08,7.42Z"/>
      <path class="cls-17" d="M90.85,100.29c2.57,.01,5.14,.11,7.71,0,1.61-.06,2.08,.55,2.03,2.09-.09,2.39,0,4.79,.02,7.19-2.65,.02-5.31-.02-7.96,.08-1.47,.06-1.97-.49-1.9-1.93,.11-2.48,.07-4.96,.1-7.44Z"/>
      <path class="cls-4" d="M201.6,183.76c-5.67,0-11.33,0-17,0q.08-5.04,5.25-5.05c3.95,0,7.9,.02,11.84,.03,.99,1.69,1.04,3.37-.09,5.02Z"/>
      <path class="cls-41" d="M179.39,49.38c-1.35,0-2.71,.02-4.06,.03-2.68,1.41-5.56,.56-8.34,.69-1.66,.08-3.45,.45-4.98-.7l-.16-.15c-.89-1.36-.86-2.69,.14-3.99,4.86-.01,9.72,.1,14.57-.09,2.34-.09,3.31,.58,2.91,2.94-.07,.42-.05,.85-.07,1.27Z"/>
      <path class="cls-51" d="M175.33,144.07c1.36,0,2.72,.02,4.08,.02q.13,4.16-3.89,4.18c-3.24,0-6.48,0-9.72,0q-3.87,0-3.95-3.96c.05-.08,.09-.17,.13-.25,.86-.74,1.92-.78,2.93-.7,3.47,.27,7.03-.79,10.42,.7Z"/>
      <path class="cls-58" d="M15.42,145.23c2.23-.01,4.47,.06,6.69-.07,1.75-.1,2.25,.62,2.16,2.25-.1,1.8,0,3.6,.02,5.4-2.93,1.49-5.88,1.32-8.84,.1l.03,.03c-1.24-2.56-1.18-5.13-.06-7.72Z"/>
      <path class="cls-54" d="M15.45,152.92c2.95-.03,5.89-.06,8.84-.1,0,0-.06,.17-.06,.17,1.25,2.54,1.21,5.09,.03,7.64-2.39,0-4.78-.03-7.17,.05-1.21,.04-1.68-.39-1.64-1.61,.06-2.05,0-4.09,0-6.14Z"/>
      <path class="cls-46" d="M65.47,183.9c2.91,0,5.82,0,8.74,0,1.35,2.52,1.21,5.07,.12,7.64-2.2,.01-4.41-.08-6.61,.07-1.87,.13-2.35-.67-2.25-2.37,.11-1.77,0-3.56,0-5.33Z"/>
      <path class="cls-57" d="M15.42,145.23c.02,2.57,.04,5.14,.06,7.72-1.71,0-3.43-.02-5.14-.02-.43,0-.86-.04-1.28,0-2.6,.25-2.07-1.81-1.75-2.92,.47-1.61-1.98-4.46,1.69-4.79,2.12-.19,4.28,0,6.42,0Z"/>
      <path class="cls-59" d="M24.27,160.62c-.01-2.55-.02-5.09-.03-7.64,2.73,0,5.47,0,8.2-.01,1.34,2.56,1.27,5.13,.05,7.71l.04-.03c-2.76,1.25-5.53,1.19-8.31,.05l.05-.07Z"/>
      <path class="cls-7" d="M32.49,160.68c-.02-2.57-.03-5.14-.05-7.71,2.03-.02,4.07,.07,6.09-.08,1.85-.14,2.36,.64,2.25,2.35-.11,1.77,0,3.55,0,5.33-2.77,.04-5.53,.07-8.3,.11Z"/>
      <path class="cls-29" d="M24.22,160.7c2.77-.02,5.54-.04,8.31-.05,.01,2.57,.02,5.13,.03,7.7-.08,0-.17,.02-.25,.02-2.54-.05-5.77,.82-7.42-.41-1.8-1.34-.36-4.76-.67-7.25Z"/>
      <path class="cls-56" d="M48.99,168.4c-.01-2.56-.02-5.12-.03-7.68,2.75-.01,5.49-.02,8.24-.03,1.34,2.52,1.22,5.07,.11,7.63-2.77,.03-5.54,.06-8.31,.09Z"/>
      <path class="cls-52" d="M57.3,168.32c-.04-2.54-.07-5.08-.11-7.63,2.03-.01,4.07,.08,6.09-.07,1.86-.14,2.36,.65,2.25,2.36-.11,1.77-.02,3.55,0,5.32-2.74,0-5.48,0-8.22,.01Z"/>
      <path class="cls-22" d="M40.68,168.43c2.78-.02,5.56-.04,8.34-.06,0,2.56,.01,5.12,.02,7.68-2.63-.03-5.94,.89-7.7-.36-1.75-1.23-.33-4.76-.65-7.26Z"/>
      <path class="cls-19" d="M82.57,176.05c-2.12,.02-4.24-.03-6.35,.09-1.62,.1-2.06-.59-1.99-2.08,.09-1.86,0-3.73-.01-5.59,2.75,0,5.5-.02,8.25-.03,1.3,2.52,1.2,5.06,.1,7.61Z"/>
      <path class="cls-5" d="M82.57,176.05c-.03-2.54-.07-5.07-.1-7.61,2.11-.02,4.23,.04,6.34-.08,1.61-.09,2.06,.6,1.99,2.09-.08,1.86,0,3.72,0,5.58-2.75,0-5.49,.01-8.24,.02Z"/>
      <path class="cls-48" d="M74.33,191.54c-.04-2.55-.08-5.09-.12-7.64,2.03-.02,4.07,.07,6.1-.08,1.86-.14,2.35,.65,2.24,2.35-.11,1.77,0,3.55,0,5.33-2.74,.01-5.48,.02-8.22,.03Z"/>
      <path class="cls-27" d="M99,191.63c.02,.48,.05,.97,.07,1.45,1.03,2.11,1.22,4.21-.11,6.28-2.14-.02-4.28-.09-6.42-.04-1.31,.04-1.86-.41-1.81-1.77,.07-1.96,0-3.93-.02-5.9,2.76,0,5.52-.02,8.28-.02Z"/>
      <path class="cls-55" d="M48.98,176.16c2.74,0,5.47,0,8.21,0,1.36,2.53,1.21,5.08,.13,7.65-.08,0-.17,.01-.25,.01-2.53-.05-5.72,1.02-7.42-.39-1.79-1.49-.37-4.79-.66-7.27Z"/>
      <path class="cls-10" d="M57.31,183.81c-.04-2.55-.08-5.1-.13-7.65,2.03-.01,4.08,.08,6.1-.07,1.87-.14,2.34,.67,2.24,2.37-.11,1.77,0,3.56,0,5.33-2.74,0-5.48,.01-8.22,.02Z"/>
      <path class="cls-48" d="M137.7,179.64c0,1.39,0,2.78,0,4.17,.38,2.15-.54,2.84-2.65,2.65-2.02-.18-4.07-.04-6.11-.04-.02-2.2-.03-4.4-.05-6.6,2.94-.06,5.87-.12,8.81-.18Z"/>
      <path class="cls-28" d="M128.9,199.89c1.36-.03,2.72-.07,4.07-.07q4.64,0,4.73,4.68c.22,1.46-.18,2.19-1.88,2.06-2.27-.17-4.57-.08-6.85-.1-1.21-2.18-1.21-4.37-.07-6.57Z"/>
      <path class="cls-15" d="M201.6,183.76c.03-1.67,.06-3.35,.09-5.02,3.78,0,7.55,0,11.33,.01,1.02,1.69,1.06,3.36-.08,5.01-3.78,0-7.56,0-11.33,0Z"/>
      <path class="cls-1" d="M201.57,204.38c.15-4.92,.15-4.93,5.11-5.03,2.11-.04,4.23,0,6.34,.01,1.01,1.7,1.1,3.38-.13,5.03-3.77,0-7.55,0-11.32-.01Z"/>
      <path class="cls-36" d="M98.97,199.36c.04-2.09,.07-4.19,.11-6.28,2.13,.01,4.27,.08,6.4,.03,1.3-.03,1.87,.42,1.82,1.77-.07,1.62,0,3.24,0,4.86-2.78-.08-5.6,.57-8.34-.38Z"/>
      <path class="cls-21" d="M128.9,199.89c.02,2.19,.05,4.38,.07,6.57-1.69,.02-3.38-.06-5.06,.08-1.84,.16-2.39-.61-2.25-2.33,.11-1.42,.01-2.86,0-4.3,2.08-.06,4.16-.12,6.24-.18,.33,.05,.66,.1,.99,.15Z"/>
      <path class="cls-62" d="M212.93,183.77c.03-1.67,.06-3.34,.08-5.01,1.9,.01,3.79,.02,5.69,.04q-.06,5.26-5.77,4.98Z"/>
      <path class="cls-55" d="M212.89,204.39c.04-1.68,.08-3.35,.13-5.03,1.89,.01,3.77,.02,5.66,.04q-.05,5.25-5.78,5Z"/>
      <path class="cls-6" d="M161.98,45.26c-.04,1.33-.09,2.66-.13,3.99-1.5,.04-3,.09-4.5,.13-.05-4.71-.77-4.2,4.64-4.12Z"/>
      <path class="cls-35" d="M235.24,176.23c.22,1.73-.24,2.76-2.28,2.5-1.16-.15-2.35-.07-3.53-.09-.17-1.9,.6-2.73,2.57-2.46,1.06,.14,2.16,.04,3.24,.05Z"/>
      <path class="cls-45" d="M224.3,199.26c-.18-1.85,.5-2.8,2.51-2.53,.9,.12,1.82,.04,2.73,.05,.17,1.84-.49,2.8-2.51,2.52-.9-.12-1.82-.04-2.74-.05Z"/>
      <path class="cls-2" d="M249.68,173.61c-1.72,1.82-3.68,3.02-6.33,2.41-.28-1.98,.57-2.73,2.55-2.5,1.25,.15,2.52,.06,3.78,.08Z"/>
      <path class="cls-34" d="M243.35,194.07c-.4-2.81,1.36-2.69,3.25-2.39,.44,2.87-1.42,2.62-3.25,2.39Z"/>
      <path class="cls-33" d="M235.09,196.64c-.29-2.16,.67-2.91,2.73-2.4,.31,2.19-.68,2.89-2.73,2.4Z"/>
      <path class="cls-26" d="M242.94,72.01c5.36-14.69,10.6-29.08,15.91-43.63,1.08,1.22,1.73,2.53,2.22,4.02,1.62,4.94,3.04,9.98,5.13,14.72,2.94,6.7,4.93,13.73,7.47,20.56,.51,1.38,1.22,2.12,.23,3.31-.9,1.07-1.82,1-3.42,1.01-9.09,.04-18.18,.02-27.54,.02Z"/>
      <path class="cls-50" d="M80.99,54.04c-10.12-.06-20.24-.11-30.37-.17-.01-9.22-.02-18.43-.03-27.65,.71-.76,1.65-.87,2.6-.88,11.84-.04,23.67-.07,35.51,.01,.52,0,1.02,.09,1.51,.27,.32,.12,.59,.32,.8,.59,1.03,3.03,.36,6.15,.5,9.24,.08,3.08,.08,6.17,0,9.26,.1,2.21,.05,4.41,.03,6.62-.01,.94-.1,1.87-.83,2.6l.04,.04c-3.25,1.3-6.51,1.22-9.78,.07Z"/>
      <path class="cls-10" d="M90.77,26.14c-13.39,.03-26.79,.06-40.18,.08-.02-3.11-.04-6.23-.05-9.34,13.43-.03,26.85-.06,40.28-.09,0,0-.05,.11-.05,.11,1.26,3.08,1.26,6.16,0,9.24Z"/>
      <path class="cls-24" d="M80.99,54.04c3.26-.02,6.52-.05,9.78-.07,0,2.46-.06,4.92,.02,7.37,.04,1.41-.46,1.97-1.9,1.93-2.63-.07-5.26,0-7.88,0,0-3.08,0-6.15-.01-9.23Z"/>
      <path class="cls-56" d="M90.73,53.92c.03-3.06,.05-6.12,.08-9.18,3.26-1.45,6.56-1.16,9.87-.19,1.04,3.15,1.22,6.29-.13,9.41,0,0,.01-.03,.01-.03-3.28,0-6.55-.01-9.83-.01Z"/>
      <path class="cls-3" d="M175.33,144.07c-4.45,0-8.9,0-13.35,0,0-31.56,.02-63.12,.03-94.68,4.44,0,8.88,0,13.32,.01,0,31.55,0,63.11,0,94.66Z"/>
      <path class="cls-3" d="M100.54,53.97c-.01-3.11-.02-6.21-.04-9.32-1.43-2.94-.47-6.07-.68-9.1,.14-3.01-.47-6.07,.42-9.05,.11-.12,.22-.23,.33-.35,3.39,0,6.78,0,10.17,0,.07,3.08,.13,6.16,.2,9.24,0,3.11,0,6.22,0,9.33-.07,3.08-.13,6.16-.2,9.23-3.4,0-6.81,0-10.21,.01Z"/>
      <path class="cls-31" d="M90.77,26.14c0-3.08,0-6.16,0-9.24,3.27,.03,6.55,.06,9.82,.1,0,3.05,0,6.1-.01,9.15,0,0,0-.01,0-.01-3.28,1.31-6.56,1.23-9.84,.05l.04-.05Z"/>
      <path class="cls-37" d="M90.73,26.18c3.28-.02,6.56-.03,9.84-.05-.02,3.11-.05,6.22-.07,9.32-3.24,1.16-6.48,1.29-9.69-.1-.03-3.06-.05-6.12-.08-9.17Z"/>
      <path class="cls-58" d="M90.81,35.36c3.23,.03,6.46,.07,9.69,.1,0,3.06,0,6.12,0,9.18-3.23,.03-6.46,.07-9.7,.1,0-3.13,0-6.26,0-9.39Z"/>
    </g>
  </g>
</svg>